# xmcd CD database file
#
# Track frame offsets:
#	150
#	28470
#	75345
#	121220
#	170245
#	208207
#
# Disc length: 3152 seconds
#
# Revision: 0
# Processed by: cddbd v1.5.1PL0 Copyright (c) Steve Scherf et al.
# Submitted via: CDex 1.51
#
DISCID=510c4e06
DTITLE=Steve Khun and Steve Swallow - Live In Japan vol.1
DYEAR=2004
DGENRE=Jazz
TTITLE0=When Light Are Low
TTITLE1=Wood'n You
TTITLE2=Passion Flower
TTITLE3=I Love You Porgy
TTITLE4=Oceans In The Sky
TTITLE5=Airegin
EXTD=YEAR: 2004
EXTT0=
EXTT1=
EXTT2=
EXTT3=
EXTT4=
EXTT5=
PLAYORDER=
